<svg height="65" viewBox="0 0 397 65" width="397" xmlns="http://www.w3.org/2000/svg"><g fill="none" fill-rule="evenodd" transform="translate(-4 -29)"><g font-family="OpenSans-Bold, Open Sans" font-size="82" font-weight="bold" letter-spacing="-3.4000001"><text fill="#ff225a"><tspan x="4.29043" y="88">///</tspan></text><text fill="#18d6cc" opacity=".49707"><tspan x="10.59043" y="94">//</tspan> <tspan x="71.536523" y="94">/</tspan></text></g><path d="m138.871 80.902c2.077333 0 3.895-.3006667 5.453-.902s2.911-1.3393333 4.059-2.214 2.063667-1.681 2.747-2.419c.113889-.123.220565-.2403056.320028-.3519167l.048972-.0550833v5.04h9.184v-34.686h-8.446l-.664 4.712-.229253-.3168c-1.014614-1.3557333-2.317867-2.5802667-3.90976-3.6736l-.403987-.2706c-2.05-1.3393333-4.742333-2.009-8.077-2.009-3.116 0-5.999667.7653333-8.651 2.296s-4.783333 3.7036667-6.396 6.519-2.419 6.191-2.419 10.127c0 3.9906667.765333 7.339 2.296 10.045s3.621667 4.7423333 6.273 6.109 5.589667 2.05 8.815 2.05zm2.542-7.544c-1.858667 0-3.608-.492-5.248-1.476s-2.952-2.3233333-3.936-4.018-1.476-3.5806667-1.476-5.658c0-2.132.478333-4.018 1.435-5.658s2.214-2.9246667 3.772-3.854 3.293667-1.394 5.207-1.394c1.694667 0 3.239.3006667 4.633.902s2.583 1.435 3.567 2.501 1.694667 2.3096667 2.132 3.731v7.544c-.437333 1.5306667-1.120667 2.8426667-2.05 3.936s-2.077333 1.9406667-3.444 2.542-2.897333.902-4.592.902zm38.282 6.642v-15.416c0-2.5146667.423667-4.7423333 1.271-6.683s2.009-3.4713333 3.485-4.592 3.143333-1.681 5.002-1.681c2.022667.0546667 3.498667.615 4.428 1.681s1.421333 2.4736667 1.476 4.223v22.468h9.184v-25.748c-.054667-3.116-1.148-5.6306667-3.28-7.544s-4.838-2.87-8.118-2.87-6.122667.7243333-8.528 2.173-4.182 3.3756667-5.33 5.781l.124-.25-.616-6.228h-8.282v34.686zm47.22 0v-27.47h9.02v-7.216h-9.02v-15.252h-9.184v15.252h-5.986v7.216h5.986v27.47zm31.804.902c3.881333 0 7.270667-.82 10.168-2.46s5.125-3.8676667 6.683-6.683 2.337-5.9723333 2.337-9.471-.779-6.6556667-2.337-9.471-3.772-5.0293333-6.642-6.642-6.245667-2.419-10.127-2.419c-3.772 0-7.134.8063333-10.086 2.419s-5.261667 3.8266667-6.929 6.642-2.501 5.9723333-2.501 9.471c0 3.8266667.833667 7.134 2.501 9.922s3.963333 4.9336667 6.888 6.437 6.273 2.255 10.045 2.255zm-.164-7.544c-1.858667 0-3.553333-.492-5.084-1.476s-2.733333-2.3096667-3.608-3.977-1.312-3.5123333-1.312-5.535c0-2.0773333.437333-3.936 1.312-5.576s2.063667-2.9656667 3.567-3.977 3.211667-1.517 5.125-1.517c2.022667 0 3.785667.492 5.289 1.476s2.678667 2.3096667 3.526 3.977 1.271 3.5396667 1.271 5.617c0 2.0226667-.423667 3.8676667-1.271 5.535s-2.022667 2.993-3.526 3.977-3.266333 1.476-5.289 1.476zm35.494 6.642v-15.416c0-2.5146667.423667-4.7423333 1.271-6.683s2.009-3.4713333 3.485-4.592 3.143333-1.681 5.002-1.681c2.022667.0546667 3.498667.615 4.428 1.681s1.421333 2.4736667 1.476 4.223v22.468h9.184v-25.748c-.054667-3.116-1.148-5.6306667-3.28-7.544s-4.838-2.87-8.118-2.87-6.122667.7243333-8.528 2.173-4.182 3.3756667-5.33 5.781l.124-.25-.616-6.228h-8.282v34.686zm48.532.902 19.024-35.588h-10.25l-8.676 19.804-9.528-19.804h-10.906l19.926 35.588zm39.348 0c1.968 0 4.031667-.3416667 6.191-1.025s4.141-1.599 5.945-2.747l-4.182-6.806c-1.202667.82-2.446333 1.476-3.731 1.968s-2.637667.738-4.059.738c-2.022667 0-3.826667-.451-5.412-1.353-1.268267-.7216-2.326613-1.6881067-3.17504-2.89952l-.13396-.19848 26.679-8.997c-1.002851-4.855908-2.96123-8.6543639-5.875139-11.3953674l-.315861-.2896326c-3.088667-2.7606667-7.011-4.141-11.767-4.141-3.608 0-6.901667.8336667-9.881 2.501s-5.343667 3.9086667-7.093 6.724-2.624 5.945-2.624 9.389c0 3.608.765333 6.806 2.296 9.594s3.744667 4.9746667 6.642 6.56 6.396 2.378 10.496 2.378zm-10.353-17.632-.011992-.1336523c-.032672-.4083985-.049008-.8278477-.049008-1.2583477 0-2.1866667.423667-4.0863333 1.271-5.699s2.009-2.8836667 3.485-3.813 3.170667-1.394 5.084-1.394c2.405333 0 4.291333.615 5.658 1.845s2.323333 2.665 2.87 4.305l-.116-.325z" fill="#ff225a" fill-rule="nonzero"/></g></svg>